Coordinates
version=1
nRows=9
nColumns=24
inDegrees=yes

Units are S.I. units (second, meters, Newtons, ...)
Angles are in degrees.

endheader
time	pelvis_tilt	pelvis_list	pelvis_rotation	pelvis_tx	pelvis_ty	pelvis_tz	hip_flexion_r	hip_adduction_r	hip_rotation_r	knee_angle_r	ankle_angle_r	subtalar_angle_r	mtp_angle_r	hip_flexion_l	hip_adduction_l	hip_rotation_l	knee_angle_l	ankle_angle_l	subtalar_angle_l	mtp_angle_l	lumbar_extension	lumbar_bending	lumbar_rotation
      0.43300000	     -2.22572911	      3.68503085	     -0.79223598	     -0.83041913	      1.05488270	      0.33037527	     24.53448605	     -0.31235382	     -4.84687526	     -4.85957641	      4.32306248	     -3.20593397	     -0.06227567	     -7.92880902	      8.20617117	     -2.02692120	    -10.65447816	     12.80491098	     -1.03599953	     -0.05309288	      3.30412755	     -1.28009254	     -1.51897259
      0.43716667	     -2.25749778	      3.74234056	     -0.79542166	     -0.82501301	      1.05436841	      0.33058420	     24.49164348	     -0.31520811	     -4.76892299	     -4.81797557	      4.21266762	     -3.08567670	     -0.06692151	     -7.92705364	      8.21546482	     -2.09125825	    -11.23264740	     12.70728327	     -0.99129722	     -0.08278185	      3.30327405	     -1.35155144	     -1.55912766
      0.44133333	     -2.34551573	      3.75137381	     -0.92157659	     -0.81925309	      1.05375942	      0.33105560	     24.52827911	     -0.20469970	     -4.75664197	     -4.89237853	      3.97251057	     -2.72399717	     -0.08058477	     -7.87384593	      8.16815155	     -2.44995121	    -11.80874159	     12.60020273	     -0.60862331	     -0.17929131	      3.33601138	     -1.53101201	     -1.70330318
      0.44550000	     -2.31690780	      3.77909612	     -0.94959527	     -0.81365267	      1.05337141	      0.33117428	     24.43041305	     -0.18674589	     -4.71214340	     -5.03896878	      3.96188459	     -2.66230595	     -0.08186227	     -7.92505589	      8.15316752	     -2.48202073	    -12.42464724	     12.57524200	     -0.54580033	     -0.19553395	      3.43154877	     -1.48559775	     -1.72139273
      0.44966667	     -2.35426836	      3.76967042	     -1.09773039	     -0.80777033	      1.05285770	      0.33167050	     24.42630513	     -0.05651303	     -4.69862017	     -5.29818689	      3.93040842	     -2.27335143	     -0.09092478	     -7.87849304	      8.07452220	     -3.00108141	    -13.11656177	     12.66554700	      0.35112379	     -0.31259484	      3.54034123	     -1.49740844	     -1.84582688
      0.45383333	     -2.32615298	      3.76541715	     -1.07382351	     -0.80203742	      1.05254076	      0.33175032	     24.30838063	     -0.02877828	     -4.61740916	     -5.53413603	      3.90545167	     -2.23172442	     -0.09108262	     -7.88150333	      7.99847022	     -3.04621186	    -13.85366106	     12.62861436	      0.39378862	     -0.32532156	      3.59547697	     -1.46302996	     -1.84656005
      0.45800000	     -2.34092353	      3.77840587	     -1.20496097	     -0.79625475	      1.05208513	      0.33227784	     24.28875463	      0.07189072	     -4.48611086	     -5.89598276	      3.79080663	     -2.14608067	     -0.09418438	     -7.79141897	      7.92339090	     -3.54365807	    -14.66658874	     12.61275916	      1.27224570	     -0.40797237	      3.60782622	     -1.51729567	     -1.86967589
      0.46216667	     -2.28908467	      3.76080962	     -1.17318430	     -0.79045255	      1.05184504	      0.33234000	     24.14212694	      0.10203569	     -4.38415765	     -6.21670674	      3.74734113	     -2.12303257	     -0.09336548	     -7.76547794	      7.81976963	     -3.62545794	    -15.51273473	     12.55439858	      1.31724770	     -0.41658894	      3.66513343	     -1.45901273	     -1.86808372
      0.46633333	     -2.29505294	      3.73066208	     -1.29187029	     -0.78454315	      1.05147335	      0.33305963	     24.06355185	      0.25990300	     -4.02516244	     -6.56507133	      3.52297198	     -2.31691270	     -0.08948495	     -7.62786865	      7.65218010	     -4.21803879	    -16.44879462	     12.46284116	      2.42433679	     -0.47629232	      3.68043944	     -1.51489405	     -1.83814579
